<?xml version="1.0" standalone="no"?>
<!DOCTYPE svg PUBLIC "-//W3C//DTD SVG 1.1//EN" "http://www.w3.org/Graphics/SVG/1.1/DTD/svg11.dtd">
<svg xmlns="http://www.w3.org/2000/svg" version="1.1" width="100" height="50">
    <desc>Salesforce Cloud</desc>
    <path d="M 26.166 0 C 32.435 0 38.011 3.125 41.546 7.969 C 44.713 4.463 49.198 2.276 54.17 2.276 C 60.882 2.276 66.707 6.263 69.601 12.099 C 72.293 10.839 75.273 10.136 78.413 10.136 C 90.335 10.136 100 20.265 100 32.759 C 100 39.665 97.046 45.851 92.388 50 L 1.092 50 C 0.386 48.056 0 45.947 0 43.743 C 0 37.203 3.401 31.494 8.453 28.454 C 7.399 25.954 6.814 23.187 6.814 20.277 C 6.814 9.079 15.479 0 26.166 0 Z" style="fill: rgb(0, 158, 219);" />
</svg>